#!OML:ASF F:\VICON\USERDATA\INSTALL\rory3\rory3.ASF
:FULLY-SPECIFIED
:DEGREES
1807
root -1.17191 17.6513 0.910737 7.47972 3.16264 -0.0819053
lowerback 10.7245 1.90489 4.54066
upperback 1.87241 3.00743 -0.742355
thorax -3.77513 1.43322 -3.73924
lowerneck -26.9398 -10.8414 -10.2606
upperneck 16.177 -13.6572 11.2144
head 11.1511 -5.54537 3.25867
rclavicle -5.1684e-015 6.95746e-015
rhumerus 47.7193 -30.29 -22.432
rradius 44.8645
rwrist 35.2859
rhand -65.948 -15.9859
rfingers 7.12502
rthumb -37.7938 -41.841
lclavicle -5.1684e-015 6.95746e-015
lhumerus -42.8275 9.01042 67.9549
lradius 58.5323
lwrist -2.69642
lhand -19.7836 22.5873
lfingers 7.12502
lthumb 6.54876 52.466
rfemur -23.0529 -5.37226 22.4707
rtibia 38.517
rfoot -20.4679 -4.44272
rtoes 9.86715
lfemur -8.74492 -7.10284 -5.48092
ltibia 15.4621
lfoot -7.18861 15.1452
ltoes -23.7881
1808
root -1.17516 17.652 0.918126 7.48659 3.31783 -0.173135
lowerback 10.723 1.8634 4.63295
upperback 1.83538 2.96218 -0.780574
thorax -3.8105 1.40791 -3.82648
lowerneck -26.8891 -10.7619 -10.1388
upperneck 16.2917 -13.5709 11.0557
head 11.1514 -5.5176 3.20166
rclavicle -1.5704e-014 5.36719e-015
rhumerus 48.9656 -31.1598 -23.9764
rradius 44.8823
rwrist 35.199
rhand -65.8123 -17.4838
rfingers 7.12502
rthumb -37.6657 -43.3732
lclavicle -1.5704e-014 5.36719e-015
lhumerus -42.7635 9.05852 67.8804
lradius 58.3743
lwrist -2.73867
lhand -20.4235 20.3994
lfingers 7.12502
lthumb 5.93097 50.2964
rfemur -23.0242 -5.40665 22.6235
rtibia 38.453
rfoot -20.4425 -4.76982
rtoes 9.04937
lfemur -8.9434 -7.17712 -5.31679
ltibia 15.6074
lfoot -7.18262 15.0799
ltoes -23.8012
1809
root -1.17744 17.6494 0.925437 7.46304 3.41646 -0.247773
lowerback 10.719 1.87635 4.65087
upperback 1.8313 2.98046 -0.801279
thorax -3.80869 1.41669 -3.86051
lowerneck -26.9527 -10.7499 -10.0789
upperneck 16.5095 -13.5498 10.877
head 11.2198 -5.51831 3.1302
rclavicle 1.41634e-014 -1.39149e-015
rhumerus 49.8202 -31.7785 -25.076
rradius 45.0901
rwrist 35.2373
rhand -65.7157 -18.9136
rfingers 7.12502
rthumb -37.5744 -44.8274
lclavicle 1.41634e-014 -1.39149e-015
lhumerus -42.694 9.04567 67.8893
lradius 58.3759
lwrist -2.97335
lhand -20.0277 23.342
lfingers 7.12502
lthumb 6.31309 53.2279
rfemur -22.953 -5.41556 22.7403
rtibia 38.3897
rfoot -20.4106 -5.00909
rtoes 8.46256
lfemur -9.02149 -7.23244 -5.17975
ltibia 15.6795
lfoot -7.22853 15.0076
ltoes -23.3787
1810
root -1.17968 17.6502 0.931112 7.50097 3.56726 -0.329875
lowerback 10.6883 1.89807 4.64883
upperback 1.82456 3.00863 -0.781423
thorax -3.79717 1.43099 -3.84085
lowerneck -27.2141 -10.8008 -10.0482
upperneck 16.8562 -13.5826 10.6336
head 11.3727 -5.54207 3.02279
rclavicle -3.926e-014 -2.08724e-014
rhumerus 50.2413 -32.1244 -25.6186
rradius 45.4594
rwrist 35.2945
rhand -65.8231 -20.676
rfingers 7.12502
rthumb -37.6758 -46.5627
lclavicle -3.926e-014 -2.08724e-014
lhumerus -42.6019 8.98413 68.0268
lradius 58.4168
lwrist -3.16652
lhand -19.9984 23.6865
lfingers 7.12502
lthumb 6.34137 53.5716
rfemur -22.9237 -5.42217 22.8454
rtibia 38.3377
rfoot -20.4961 -5.09662
rtoes 8.4128
lfemur -9.14262 -7.26238 -5.01227
ltibia 15.7116
lfoot -7.34535 14.8792
ltoes -22.8698
1811
root -1.18015 17.6529 0.936915 7.56342 3.72318 -0.398119
lowerback 10.6743 1.89853 4.60839
upperback 1.76162 3.00749 -0.736065
thorax -3.86013 1.428 -3.77175
lowerneck -27.3015 -10.8026 -10.0514
upperneck 17.1286 -13.5417 10.3913
head 11.4628 -5.54422 2.94054
rclavicle 3.73218e-014 -4.17448e-015
rhumerus 50.3394 -32.0838 -25.7664
rradius 46.0182
rwrist 35.3674
rhand -65.8732 -21.878
rfingers 7.12502
rthumb -37.7232 -47.752
lclavicle 3.73218e-014 -4.17448e-015
lhumerus -42.5758 9.10273 68.1259
lradius 58.3395
lwrist -3.33519
lhand -20.1388 22.8254
lfingers 7.12502
lthumb 6.20578 52.7145
rfemur -22.9447 -5.47422 22.9285
rtibia 38.3073
rfoot -20.558 -5.16535
rtoes 8.31671
lfemur -9.25213 -7.28383 -4.88132
ltibia 15.6912
lfoot -7.37624 14.7596
ltoes -22.7577
1812
root -1.1817 17.6513 0.941746 7.5593 3.82394 -0.412416
lowerback 10.708 1.89522 4.48252
upperback 1.68607 2.99143 -0.752517
thorax -3.96516 1.41708 -3.72008
lowerneck -27.0864 -10.6971 -9.9894
upperneck 17.1941 -13.4201 10.2863
head 11.4229 -5.50585 2.92401
rclavicle -8.79622e-015 9.54166e-015
rhumerus 49.9397 -31.6525 -25.4207
rradius 46.7341
rwrist 35.329
rhand -65.8194 -22.4503
rfingers 7.12502
rthumb -37.6724 -48.3379
lclavicle -8.79622e-015 9.54166e-015
lhumerus -42.6436 9.14641 68.0774
lradius 58.3292
lwrist -3.41827
lhand -19.9804 23.439
lfingers 7.12502
lthumb 6.35869 53.3236
rfemur -22.9157 -5.42503 22.948
rtibia 38.2971
rfoot -20.6548 -5.25395
rtoes 8.23544
lfemur -9.24254 -7.29536 -4.83042
ltibia 15.6025
lfoot -7.33119 14.6493
ltoes -22.8761
1813
root -1.18187 17.6504 0.947639 7.51037 3.89735 -0.441395
lowerback 10.6684 1.86948 4.39945
upperback 1.69564 2.94316 -0.814657
thorax -3.93867 1.39507 -3.72993
lowerneck -27.0476 -10.6153 -9.93897
upperneck 17.3678 -13.3555 10.3083
head 11.4735 -5.46829 2.93899
rclavicle -2.48481e-016 5.1684e-015
rhumerus 49.2246 -30.987 -24.8111
rradius 47.5987
rwrist 35.3716
rhand -65.9698 -22.4319
rfingers 7.12502
rthumb -37.8144 -48.2814
lclavicle -2.48481e-016 5.1684e-015
lhumerus -42.6346 9.16696 67.9743
lradius 58.3678
lwrist -3.32981
lhand -20.1505 23.2182
lfingers 7.12502
lthumb 6.19456 53.1076
rfemur -22.8155 -5.3372 22.9671
rtibia 38.2927
rfoot -20.7989 -5.27762
rtoes 8.36621
lfemur -9.15299 -7.32513 -4.78411
ltibia 15.4936
lfoot -7.27768 14.5877
ltoes -23.3823
1814
root -1.17917 17.6515 0.953667 7.47849 3.9432 -0.401412
lowerback 10.5506 1.8474 4.2698
upperback 1.7519 2.88939 -0.897897
thorax -3.82167 1.37433 -3.72978
lowerneck -27.0782 -10.5256 -9.81883
upperneck 17.5262 -13.2622 10.1978
head 11.5099 -5.42764 2.89868
rclavicle 2.40032e-014 8.34896e-015
rhumerus 48.1369 -30.0779 -23.7585
rradius 48.6931
rwrist 35.4946
rhand -66.0483 -22.0168
rfingers 7.12502
rthumb -37.8886 -47.8462
lclavicle 2.40032e-014 8.34896e-015
lhumerus -42.5319 9.27539 67.8802
lradius 58.3386
lwrist -3.43198
lhand -20.5809 20.49
lfingers 7.12502
lthumb 5.77902 50.3912
rfemur -22.7453 -5.33564 22.8956
rtibia 38.2916
rfoot -20.8955 -5.23831
rtoes 8.18275
lfemur -9.05096 -7.43733 -4.82292
ltibia 15.4318
lfoot -7.39052 14.5958
ltoes -23.3617
1815
root -1.17541 17.6525 0.956263 7.49281 3.98487 -0.427574
lowerback 10.4523 1.84438 4.17077
upperback 1.76543 2.86796 -0.945375
thorax -3.7575 1.3669 -3.71587
lowerneck -26.9229 -10.4176 -9.73686
upperneck 17.5044 -13.1431 10.15
head 11.4518 -5.38155 2.89753
rclavicle 8.94531e-015 -1.56046e-014
rhumerus 46.7129 -28.8679 -22.353
rradius 49.9568
rwrist 35.7203
rhand -65.8258 -21.2776
rfingers 7.12502
rthumb -37.6784 -47.1636
lclavicle 8.94531e-015 -1.56046e-014
lhumerus -42.4251 9.46644 67.8283
lradius 58.2978
lwrist -3.73363
lhand -20.0847 22.5292
lfingers 7.12502
lthumb 6.25801 52.4168
rfemur -22.7749 -5.331 22.9081
rtibia 38.2892
rfoot -20.8823 -5.30498
rtoes 7.92118
lfemur -9.03891 -7.55345 -4.78606
ltibia 15.4139
lfoot -7.5021 14.6824
ltoes -22.9649
1816
root -1.1697 17.6525 0.956015 7.53647 4.01276 -0.512073
lowerback 10.366 1.81934 4.10718
upperback 1.75459 2.82381 -0.960043
thorax -3.72752 1.34644 -3.68612
lowerneck -26.6459 -10.3661 -9.79214
upperneck 17.4221 -13.0889 10.2286
head 11.3779 -5.36393 2.95347
rclavicle -1.35422e-014 1.38155e-014
rhumerus 45.1655 -27.2897 -20.7628
rradius 51.2913
rwrist 36.0742
rhand -65.9412 -20.7181
rfingers 7.12502
rthumb -37.7874 -46.5749
lclavicle -1.35422e-014 1.38155e-014
lhumerus -42.4249 9.62344 67.8085
lradius 58.3609
lwrist -3.69173
lhand -20.3577 21.1356
lfingers 7.12502
lthumb 5.99445 51.0308
rfemur -22.8608 -5.35044 22.9937
rtibia 38.3165
rfoot -20.8016 -5.36881
rtoes 7.86149
lfemur -9.06373 -7.71098 -4.6839
ltibia 15.3538
lfoot -7.56174 14.8613
ltoes -22.7501
1817
root -1.16099 17.648 0.955128 7.54245 4.02769 -0.639135
lowerback 10.2492 1.7831 4.07831
upperback 1.81614 2.76829 -0.92367
thorax -3.60683 1.32383 -3.61776
lowerneck -26.421 -10.3467 -9.96331
upperneck 17.3401 -13.0277 10.2986
head 11.3195 -5.35005 3.0239
rclavicle 3.00662e-015 6.95746e-016
rhumerus 43.6332 -25.4952 -19.1069
rradius 52.7434
rwrist 36.6542
rhand -66.2763 -20.5944
rfingers 7.12502
rthumb -38.1039 -46.3653
lclavicle 3.00662e-015 6.95746e-016
lhumerus -42.3653 9.77858 67.8813
lradius 58.3525
lwrist -3.42894
lhand -20.3572 22.3812
lfingers 7.12502
lthumb 5.99495 52.2764
rfemur -22.8962 -5.37069 23.0998
rtibia 38.3714
rfoot -20.7875 -5.29637
rtoes 8.10797
lfemur -9.02855 -7.70441 -4.57263
ltibia 15.2986
lfoot -7.54581 14.9642
ltoes -23.3457
